HIERARCHY
ROOT pelvis
{
  OFFSET 0 100 0
  CHANNELS 6 Xposition Yposition Zposition Zrotation Xrotation Yrotation
  JOINT pelvis_right_femur
  {
    OFFSET -10.78128 -3.44521 -0.5502486
    CHANNELS 3 Zrotation Xrotation Yrotation
    JOINT right_femur_tibia
    {
      OFFSET -0.8047443 -44.0398 -0.1307829
      CHANNELS 3 Zrotation Xrotation Yrotation
      JOINT right_tibia_foot
      {
        OFFSET 3.006224 -47.83518 -5
        CHANNELS 3 Zrotation Xrotation Yrotation
        End Site
        {
          OFFSET 0 -5 15
        }
      }
    }
  }
  JOINT pelvis_left_femur
  {
    OFFSET 10.78128 -3.44521 -0.5502486
    CHANNELS 3 Zrotation Xrotation Yrotation
    JOINT left_femur_tibia
    {
      OFFSET 0.8047443 -44.0398 -0.1307829
      CHANNELS 3 Zrotation Xrotation Yrotation
      JOINT left_tibia_foot
      {
        OFFSET -4.370144 -48.10324 -4.275266
        CHANNELS 3 Zrotation Xrotation Yrotation
        End Site
        {
          OFFSET 0 -5 15
        }
      }
    }
  }
  JOINT pelvis_spine1
  {
    OFFSET 0 6.468898 -3.129235
    CHANNELS 3 Zrotation Xrotation Yrotation
    JOINT spine1
    {
      OFFSET 0 23.15396 4.99043
      CHANNELS 3 Zrotation Xrotation Yrotation
      JOINT spine2
      {
        OFFSET 0 20.79997 -5.064912
        CHANNELS 3 Zrotation Xrotation Yrotation
        JOINT neck
        {
          OFFSET 0 14.38658 9.616178
          CHANNELS 3 Zrotation Xrotation Yrotation
          End Site
          {
            OFFSET 0 20 0
          }
        }
      }
      JOINT right_manubrium
      {
        OFFSET -5.722621 16.35077 3.967754
        CHANNELS 3 Zrotation Xrotation Yrotation
        JOINT right_clavicle
        {
          OFFSET -13.16364 1.694482 -4.693211
          CHANNELS 3 Zrotation Xrotation Yrotation
          JOINT right_humerus
          {
            OFFSET -28.5034 -0.3100689 -2.792744
            CHANNELS 3 Zrotation Xrotation Yrotation
            JOINT right_radius
            {
              OFFSET -25.15693 0.02248979 -1.271978
              CHANNELS 3 Zrotation Xrotation Yrotation
              End Site
              {
                OFFSET -15 0 0
              }
            }
          }
        }
      }
      JOINT left_manubrium
      {
        OFFSET 5.722621 16.35077 3.967754
        CHANNELS 3 Zrotation Xrotation Yrotation
        JOINT left_clavicle
        {
          OFFSET 13.16364 1.694482 -4.693211
          CHANNELS 3 Zrotation Xrotation Yrotation
          JOINT left_humerus
          {
            OFFSET 29.39168 -1.063119 -2.237045
            CHANNELS 3 Zrotation Xrotation Yrotation
            JOINT left_radius
            {
              OFFSET 24.59957 -0.9528479 0.9047498
              CHANNELS 3 Zrotation Xrotation Yrotation
              End Site
              {
                OFFSET 15 -0 -0
              }
            }
          }
        }
      }
    }
  }
}
MOTION
Frames: 19
Frame Time: 0.0416666666667
0 103.5113 0 2.711767 -5.269079 0.04208832 -2.195393 -6.659123 8.072715 -0 38.15313 -0 -6.635839 -14.79384 -3.663886 -8.503637 13.75258 -23.45123 -0 6.31807 -0 9.182715 -16.208 29.89617 -6.117817 -1.304316 4.965513 3.081373 8.483038 -6.349766 -1.26159 21.7782 10.13302 6.30708 -21.03267 6.777871 6.672832 -16.74373 10.65583 81.53424 33.59819 -17.84865 -0 0 20.71599 -7.974759 12.1277 -1.409251 2.868262 -18.19222 -5.841262 -92.43778 20.91314 19.57066 0 0 -9.29677 9.054077 7.002648 -1.977372
0.2824499 103.5419 1.155328 2.068056 -5.260125 -0.2415388 -0.726239 -10.703 7.588571 -0 42.7241 -0 -6.535692 -13.59418 -4.751659 -8.05921 14.65585 -22.56978 -0 6.204163 -0 8.994923 -17.00395 29.39635 -5.872822 -0.5301256 4.602646 3.21572 8.611032 -6.559162 -1.381641 21.48594 10.56043 6.802164 -21.2369 6.708905 6.653915 -16.73807 10.38484 81.31596 33.20734 -18.0493 -0 0 20.57664 -8.116484 11.80347 -1.497449 3.064614 -18.26311 -5.77335 -91.41322 20.97856 19.06185 0 0 -9.746921 9.705303 6.8094 -1.799051
0.4916059 103.6077 2.566687 1.334749 -4.947894 -0.8297743 0.9219758 -14.85302 6.650679 -0 44.33677 -0 -6.416519 -12.64378 -5.39112 -7.48783 15.39712 -21.58512 -0 5.928389 -0 8.713552 -17.74844 28.8276 -5.769059 -0.04080286 4.397272 3.354411 8.576603 -6.728693 -1.457841 21.07882 10.86132 7.303319 -21.40402 6.488181 6.608378 -16.62491 10.12375 81.31602 32.87567 -18.46874 -0 0 20.2763 -8.214073 11.53245 -1.618149 3.413929 -18.42967 -5.55728 -90.4343 21.0029 18.43685 0 0 -10.44207 10.31185 6.559583 -1.65683
0.6576968 103.5707 4.160069 0.7948872 -4.300888 -1.390413 2.411694 -18.92452 5.660353 -0 42.86151 -0 -6.210637 -11.52641 -5.459845 -7.064342 15.97745 -20.52897 -0 5.555431 -0 8.409812 -18.54536 28.10642 -5.703727 0.4017483 4.392459 3.613602 8.431012 -6.790208 -1.327237 20.7937 11.13091 7.7819 -21.78861 6.608275 6.380712 -16.42758 9.863173 81.57656 32.61772 -19.04355 -0 0 19.84065 -8.245713 11.33221 -1.754232 3.913818 -18.81152 -5.320978 -89.53093 20.98949 17.54937 0 0 -11.58623 10.87804 6.271577 -1.641213
0.8474049 103.292 6.005835 0.4827794 -3.45327 -1.832562 3.687547 -22.76512 5.023168 -0 38.94206 -0 -5.967872 -10.22153 -5.039913 -6.874253 16.45457 -19.4588 -0 5.275467 -0 8.153786 -19.44603 27.22316 -5.814987 0.768263 4.348324 3.913821 8.241634 -6.954548 -1.117573 20.49245 11.35196 8.182088 -22.32367 6.885533 6.093667 -16.06976 9.557874 82.16583 32.39027 -19.88191 -0 0 19.13753 -8.141749 11.15475 -1.948975 4.514657 -19.3602 -5.152272 -88.69239 20.96478 16.46393 0 0 -13.13233 11.34609 5.972467 -1.742028
1.048496 102.794 8.130216 0.359183 -2.508223 -2.089064 4.594563 -26.37104 4.760552 -0 33.34253 -0 -5.830545 -8.94055 -4.411625 -6.867569 16.94184 -18.40131 -0 5.246442 -0 7.933669 -20.41892 26.22603 -5.925173 1.095079 4.329826 4.159689 8.044425 -7.071709 -0.8536115 20.10361 11.49 8.513196 -22.97011 7.208797 5.769118 -15.67527 9.48631 82.754 32.23472 -20.66375 -0 0 18.33521 -8.07144 11.06689 -2.04033 5.09235 -19.9149 -5.083943 -88.03 20.93095 15.36508 0 0 -14.89302 11.68675 5.670337 -1.904205
1.273816 102.0698 10.7386 0.269149 -1.574101 -1.847658 5.159852 -29.42467 4.792351 -0 27.46332 -0 -5.889952 -7.717012 -3.856474 -6.835145 17.5441 -17.32895 -0 5.417953 -0 7.668399 -21.32376 25.01125 -5.944247 1.377357 4.032886 4.452211 7.890587 -7.442632 -0.5771484 19.87906 11.51096 8.791382 -23.47071 7.434699 5.460025 -15.30925 9.387567 83.37723 32.12496 -21.4688 -0 0 17.45718 -8.051765 11.07044 -2.005817 5.571824 -20.49887 -5.071919 -87.55681 20.92316 14.33381 0 0 -16.65186 11.86597 5.382934 -2.05088
1.527139 101.1903 13.68494 0.004765561 -0.6687432 -1.07004 5.398721 -31.93323 4.869779 -0 22.26426 -0 -6.181054 -6.685268 -3.563168 -6.532259 18.3468 -16.24087 -0 5.926359 -0 7.293271 -22.10098 23.5881 -5.677304 1.652823 3.47978 4.757662 7.776163 -7.990209 -0.1764034 19.46084 11.44725 9.081821 -23.9605 7.666047 5.132591 -14.90834 9.381961 84.04361 32.06311 -22.29699 -0 0 16.58269 -8.076764 11.17478 -1.80786 5.786464 -20.98355 -5.231656 -87.32686 21.00932 13.56725 0 0 -18.0745 11.7875 5.142035 -2.073608
1.660569 100.3051 17.37614 -0.4280261 -0.07027239 -0.07041093 5.858337 -33.57798 4.902481 -0 18.97065 -0 -6.697666 -5.841576 -3.747115 -6.057153 19.28225 -15.36118 -0 7.391955 -0 6.604062 -22.38775 22.00197 -5.055117 1.83349 3.093556 5.025492 7.791148 -8.298722 0.1673507 19.0621 11.31466 9.317291 -24.41965 7.758677 4.939714 -14.36719 9.421421 84.98678 32.0138 -23.3286 -0 0 15.53 -8.137035 11.38816 -1.487802 5.749219 -21.45539 -5.047504 -87.45771 21.10091 13.07899 0 0 -19.29071 11.62854 4.98793 -1.990584
1.742274 99.75989 21.75185 -0.8692903 0.3646073 0.9782018 6.343055 -33.80667 4.911305 -0 18.17254 -0 -7.465836 -5.182893 -4.36815 -5.268971 20.33607 -14.48252 -0 9.911534 -0 5.395815 -21.77059 20.10188 -4.250241 1.769997 2.555075 5.204282 7.953544 -8.76758 0.2652473 18.84304 11.25044 9.41843 -24.81756 7.752867 4.908937 -13.96534 9.248275 85.94091 32.07287 -24.2823 -0 0 14.35457 -8.234747 11.73002 -1.057171 5.489065 -21.73289 -4.659976 -87.82404 21.18505 13.11865 0 0 -20.01707 11.38558 4.895072 -1.746825
1.757067 99.50412 27.09793 -1.565108 0.6312881 1.942166 6.978988 -31.9377 4.881429 -0 19.67981 -0 -8.377423 -4.824039 -5.207734 -4.334258 20.80545 -13.70893 -0 14.32656 -0 3.735451 -19.74774 18.11018 -3.102905 1.031978 2.087047 5.395188 7.998687 -9.21531 0.18495 18.84952 11.163 9.373404 -25.03823 7.592515 4.889026 -13.38195 9.039492 87.08079 32.22373 -25.32554 -0 0 12.98694 -8.361906 12.20935 -0.5425236 5.129216 -21.63449 -4.205558 -88.53905 21.23901 13.7112 0 0 -20.33711 11.07669 4.863348 -1.376399
1.839126 99.61029 32.77968 -2.335884 0.5239566 2.634231 7.785474 -29.41657 4.969113 -0 21.18028 -0 -9.239432 -4.970903 -5.849514 -3.7427 20.35601 -12.71569 -0 20.69922 -0 1.819409 -15.9142 16.02438 -1.725195 0.5251168 1.741157 5.401554 8.03072 -9.530375 -0.03423002 18.80814 11.0158 9.128363 -25.12329 7.291827 4.901383 -12.94435 9.12336 88.16367 32.52647 -26.01665 -0 0 11.66251 -8.525872 12.82918 0.07365483 4.468353 -21.14322 -3.993553 -89.60105 21.30828 14.88315 0 0 -19.99395 10.53397 4.877892 -0.7952081
2.052726 100.2568 38.78568 -2.724299 0.1576741 2.478717 8.199277 -25.85949 4.926422 -0 21.94228 -0 -9.978752 -5.789571 -6.165838 -3.529548 18.85518 -11.40704 -0 29.03581 -0 0.1404247 -10.65357 13.83706 -0.4962999 0.06546884 1.898823 5.297102 8.095674 -9.414904 -0.5228515 18.95231 10.84804 8.657685 -25.13375 6.803881 4.966977 -12.74493 9.56995 88.91117 33.05501 -26.19164 -0 0 10.32779 -8.808501 13.59778 0.7829626 3.95852 -20.32502 -3.83205 -90.76286 21.35252 16.48184 0 0 -19.26179 9.941183 4.940675 -0.04372382
2.230007 101.1322 44.76552 -2.819103 -0.6675223 1.930124 8.347728 -21.1333 4.660967 -0 21.5996 -0 -10.57328 -7.277278 -6.096894 -3.545915 15.72228 -10.09842 -0 38.93089 -0 -0.4469272 -5.458264 12.37461 0.1976962 -0.0893355 2.610956 5.134779 8.135908 -8.912815 -0.7309289 19.27217 10.62241 8.283501 -25.21391 6.594467 5.135618 -12.90391 10.19126 89.14106 33.72402 -25.59119 -0 0 9.538798 -9.399824 14.45082 1.742082 3.31898 -19.68257 -3.800223 -91.61993 21.36111 18.07916 0 0 -18.33046 9.240098 4.957607 0.744326
2.328274 102.1641 50.45632 -2.46891 -1.98565 1.273934 7.89988 -15.35012 4.044805 -0 20.17862 -0 -10.87982 -8.952654 -5.774741 -3.454219 10.45348 -9.018445 -0 48.29402 -0 -0.2926028 -1.172163 11.68749 0.3763497 0.1984864 3.785784 4.820009 8.437896 -8.203411 -0.9402228 19.86371 10.22144 7.84244 -25.23855 6.202251 5.331472 -13.20056 10.66981 88.89392 34.39408 -24.45134 -0 0 9.377652 -10.40982 15.32572 2.973618 2.81358 -19.24937 -3.479895 -92.08917 21.27106 19.44224 0 0 -17.51744 8.678941 4.938912 1.382615
2.564307 103.1814 55.57561 -1.735984 -2.856715 1.196688 6.74448 -9.711853 3.139022 -0 17.58304 -0 -10.82568 -10.50018 -5.198304 -3.159749 4.377665 -7.431947 -0 54.61633 -0 0.1053907 1.41087 11.68551 0.08039723 0.7467856 4.962774 4.478179 8.518655 -7.616885 -0.9570138 20.51985 9.567493 7.427767 -25.31785 5.682161 5.310927 -13.92589 11.16924 87.76559 35.10787 -22.4617 -0 0 9.876 -11.96616 16.14351 4.492858 2.719537 -19.07966 -3.273549 -92.14348 21.19747 20.43792 0 0 -17.01424 8.149318 4.874948 1.922594
2.827015 104.377 60.57778 -0.4276281 -3.687449 0.9636218 5.051347 -3.977065 2.263622 -0 14.52287 -0 -10.41825 -11.7666 -4.446496 -2.451108 -2.569161 -6.208497 -0 57.81077 -0 1.490265 0.9978067 12.13241 -0.7511992 1.375014 6.23777 3.936398 8.532594 -6.879814 -1.059784 21.08106 8.984618 6.994984 -25.32854 5.117784 5.313097 -14.8123 11.56023 86.09659 35.7296 -19.9792 -0 0 10.77579 -13.9734 16.87478 6.199237 2.824436 -19.03389 -2.938792 -91.92256 21.07445 21.25491 0 0 -16.58751 7.661857 4.759131 2.414645
3.093963 105.1503 65.68481 0.4632527 -4.517267 0.526278 3.775125 1.644053 1.518371 -0 11.59357 -0 -9.789251 -12.93387 -3.616697 -1.759003 -9.957545 -4.834522 -0 56.46524 -0 2.959099 -0.356605 13.35418 -1.428602 1.816301 7.3847 3.387683 8.537888 -5.957049 -1.038733 21.50134 8.493055 6.65301 -25.17762 4.733953 5.087633 -15.89352 11.80246 83.8866 36.20587 -16.99512 -0 0 12.12951 -16.42385 17.47042 8.104801 3.068666 -18.8886 -2.465954 -91.63459 20.92536 22.06783 0 0 -16.12099 7.184411 4.610011 2.925955
3.327527 105.2567 70.50705 0.726613 -4.639829 0.3645322 3.182495 6.140018 0.8457759 -0 9.05029 -0 -9.070646 -14.16424 -2.887703 -0.2951924 -16.22772 -2.949019 -0 49.91603 -0 3.493948 -1.33054 15.17302 -1.73041 2.114277 8.056435 2.866946 8.322083 -5.153756 -0.9655654 21.5713 8.110266 6.344199 -24.97709 4.51061 4.534694 -17.18469 12.02535 81.20831 36.4888 -13.52634 -0 0 13.91804 -19.13114 17.93272 10.11779 3.537143 -18.73503 -2.155654 -91.19311 20.8165 22.65622 0 0 -15.74166 6.691912 4.454137 3.474864
